<?xml version="1.0" encoding="UTF-8"?>
<!DOCTYPE svg PUBLIC "-//W3C//DTD SVG 1.1//EN" "http://www.w3.org/Graphics/SVG/1.1/DTD/svg11.dtd">
<!-- Creator: CorelDRAW 2019 (64 Bit) -->
<svg xmlns="http://www.w3.org/2000/svg" xml:space="preserve" width="108.77mm" height="33.5193mm" version="1.1" style="shape-rendering:geometricPrecision; text-rendering:geometricPrecision; image-rendering:optimizeQuality; fill-rule:evenodd; clip-rule:evenodd"
viewBox="0 0 6049.55 1864.26"
 xmlns:xlink="http://www.w3.org/1999/xlink">
 <defs>
  <style type="text/css">
   <![CDATA[
    .fil0 {fill:#1E0B53}
   ]]>
  </style>
 </defs>
 <g id="Camada_x0020_1">
  <metadata id="CorelCorpID_0Corel-Layer"/>
  <g id="_2526572279904">
   <g>
    <polygon class="fil0" points="5630.42,1855.71 5574.2,1855.71 5574.2,1658.64 5367.15,1357.67 5435.45,1357.67 5602.96,1606.66 5771.95,1357.67 5837.41,1357.67 5630.37,1657.9 5630.37,1855.71 "/>
    <path class="fil0" d="M5227.41 1841.85c-33.92,14.91 -71.97,22.36 -114.18,22.36 -39.37,0 -74.6,-6.67 -105.68,-19.95 -31.07,-13.28 -57.64,-31.55 -79.69,-54.76 -22.05,-23.26 -38.9,-50.5 -50.5,-81.84 -11.66,-31.29 -17.43,-64.73 -17.43,-100.32 0,-34.17 6.03,-66.88 18.11,-98.17 12.07,-31.29 29.03,-58.8 50.87,-82.53 21.79,-23.73 48.04,-42.58 78.64,-56.54 30.61,-13.97 64.62,-21 102.1,-21 20.84,0 39.95,1.42 57.27,4.25 17.32,2.83 33.44,7.14 48.4,12.81 14.96,5.72 28.93,12.7 41.94,21 13.08,8.29 25.73,17.69 38.06,28.09l-36.27 42.68c-9.5,-8.56 -19.42,-16.22 -29.87,-23.1 -10.44,-6.87 -21.68,-12.8 -33.8,-17.8 -12.07,-4.98 -25.36,-8.87 -39.84,-11.76 -14.49,-2.84 -30.5,-4.25 -48.04,-4.25 -27.51,0 -52.91,5.46 -76.12,16.38 -23.25,10.92 -43.15,25.67 -59.74,44.2 -16.59,18.53 -29.66,40.27 -39.11,65.2 -9.5,24.93 -14.23,51.45 -14.23,79.48 0,29.92 4.62,57.59 13.86,83.05 9.24,25.41 22.41,47.4 39.48,65.93 17.06,18.53 37.69,33.02 61.89,43.47 24.2,10.44 51.45,15.7 81.84,15.7 28.45,0 55.23,-4.88 80.37,-14.64 25.14,-9.77 46.25,-21.58 63.31,-35.38l0 -124.31 -151.55 0.01 0 -49.82 205.63 0 0 197.97c-23.25,20.84 -51.81,38.74 -85.72,53.6z"/>
    <path class="fil0" d="M4744.7 1704.52c-12.34,31.08 -29.66,58.48 -51.92,82.16 -22.31,23.73 -49.09,42.58 -80.43,56.54 -31.28,13.97 -65.93,21 -103.84,21 -37.95,0 -72.44,-6.88 -103.52,-20.63 -31.07,-13.75 -57.75,-32.39 -80.06,-55.86 -22.31,-23.47 -39.48,-50.76 -51.55,-81.84 -12.07,-31.08 -18.11,-63.89 -18.11,-98.54 0,-34.59 6.14,-67.46 18.48,-98.53 12.34,-31.08 29.66,-58.43 51.92,-82.16 22.31,-23.73 49.09,-42.58 80.43,-56.54 31.28,-13.97 65.93,-21 103.84,-21 37.95,0 72.44,6.87 103.52,20.63 31.08,13.75 57.75,32.39 80.06,55.86 22.26,23.47 39.48,50.76 51.55,81.84 12.07,31.08 18.11,63.94 18.11,98.54 0.01,34.59 -6.13,67.45 -18.48,98.53zm-54.44 -177.54c-9.71,-25.15 -23.36,-46.94 -40.9,-65.47 -17.53,-18.48 -38.32,-33.18 -62.26,-44.09 -23.94,-10.92 -50.19,-16.38 -78.64,-16.38 -28.45,0 -54.65,5.35 -78.64,16.01 -23.94,10.66 -44.47,25.25 -61.53,43.73 -17.06,18.48 -30.5,40.21 -40.21,65.09 -9.71,24.89 -14.59,51.61 -14.59,80.06 0,28.45 4.88,55.28 14.59,80.37 9.71,25.14 23.36,46.93 40.9,65.46 17.54,18.48 38.32,33.23 62.26,44.09 23.94,10.92 50.18,16.38 78.64,16.38 28.45,0 54.65,-5.35 78.64,-16.01 23.94,-10.66 44.46,-25.25 61.52,-43.73 17.06,-18.48 30.5,-40.21 40.21,-65.09 9.71,-24.89 14.59,-51.61 14.59,-80.06 0,-28.4 -4.88,-55.22 -14.59,-80.37z"/>
    <polygon class="fil0" points="3864.02,1357.67 3920.24,1357.67 3920.24,1803.73 4200.58,1803.74 4200.58,1855.66 3864.08,1855.65 3864.08,1357.67 "/>
    <polygon class="fil0" points="3390.71,1357.67 3446.94,1357.67 3446.94,1803.73 3727.27,1803.74 3727.27,1855.66 3390.77,1855.65 3390.77,1357.67 "/>
    <path class="fil0" d="M3253.38 1704.52c-12.34,31.08 -29.66,58.48 -51.92,82.16 -22.31,23.73 -49.09,42.58 -80.42,56.54 -31.29,13.97 -65.94,21 -103.84,21 -37.96,0 -72.45,-6.88 -103.53,-20.63 -31.07,-13.75 -57.74,-32.39 -80.06,-55.86 -22.31,-23.47 -39.48,-50.76 -51.55,-81.84 -12.07,-31.08 -18.16,-63.89 -18.16,-98.54 0,-34.59 6.15,-67.46 18.53,-98.53 12.34,-31.08 29.61,-58.43 51.92,-82.16 22.31,-23.73 49.09,-42.58 80.43,-56.54 31.28,-13.97 65.93,-21 103.84,-21 37.95,0 72.44,6.87 103.52,20.63 31.08,13.75 57.75,32.39 80.06,55.86 22.26,23.47 39.48,50.76 51.55,81.84 12.07,31.08 18.11,63.94 18.11,98.54 0.06,34.59 -6.14,67.45 -18.48,98.53zm-54.39 -177.54c-9.71,-25.15 -23.36,-46.94 -40.9,-65.47 -17.53,-18.48 -38.32,-33.18 -62.26,-44.09 -23.94,-10.92 -50.19,-16.38 -78.64,-16.38 -28.45,0 -54.65,5.35 -78.64,16.01 -23.94,10.66 -44.46,25.25 -61.52,43.73 -17.06,18.48 -30.5,40.21 -40.21,65.09 -9.71,24.89 -14.6,51.61 -14.6,80.06 0,28.45 4.88,55.28 14.6,80.37 9.71,25.14 23.36,46.93 40.89,65.46 17.54,18.48 38.33,33.23 62.26,44.09 23.94,10.92 50.18,16.38 78.64,16.38 28.45,0 54.65,-5.35 78.64,-16.01 23.94,-10.66 44.46,-25.25 61.52,-43.73 17.06,-18.48 30.45,-40.21 40.21,-65.09 9.71,-24.89 14.59,-51.61 14.59,-80.06 -0.05,-28.4 -4.88,-55.22 -14.59,-80.37z"/>
    <polygon class="fil0" points="2590.35,1357.67 2645.15,1357.67 2645.15,1855.71 2600.33,1855.71 2278.73,1447.34 2278.73,1855.71 2223.92,1855.71 2223.92,1357.67 2276.58,1357.67 2590.35,1756.8 "/>
    <polygon class="fil0" points="1739.43,1631.6 1739.43,1855.71 1683.21,1855.71 1683.21,1357.67 1739.43,1357.67 1739.43,1578.94 2026.85,1578.94 2026.85,1357.67 2083.08,1357.67 2083.08,1855.71 2026.85,1855.71 2026.85,1631.6 "/>
    <path class="fil0" d="M1544.83 1812.66c-14.02,10.66 -29.03,19.79 -45.2,27.4 -16.12,7.61 -33.44,13.54 -51.92,17.8 -18.48,4.25 -39.11,6.4 -61.9,6.4 -36.06,0 -69.24,-6.66 -99.58,-19.94 -30.34,-13.29 -56.7,-31.4 -78.95,-54.44 -22.31,-22.99 -39.74,-50.13 -52.29,-81.47 -12.55,-31.28 -18.85,-64.99 -18.85,-101 0,-35.59 6.3,-69.03 18.85,-100.32 12.55,-31.28 29.97,-58.69 52.29,-82.16 22.31,-23.47 48.88,-42 79.69,-55.49 30.82,-13.49 64.52,-20.26 101.01,-20.26 22.78,0 43.25,1.89 61.52,5.72 18.27,3.78 35.22,9.14 50.87,16.01 15.64,6.88 30.13,15.17 43.42,24.89 13.28,9.71 26.09,20.52 38.43,32.39l-38.43 41.26c-21.37,-19.95 -44.2,-36.27 -68.67,-49.08 -24.41,-12.81 -53.7,-19.22 -87.88,-19.22 -27.51,0 -53.02,5.19 -76.49,15.64 -23.47,10.44 -43.89,24.89 -61.21,43.42 -17.32,18.48 -30.82,40.21 -40.53,65.09 -9.71,24.88 -14.59,51.81 -14.59,80.74 0,28.93 4.88,55.96 14.59,81.11 9.71,25.14 23.26,46.93 40.53,65.46 17.32,18.48 37.69,33.08 61.21,43.73 23.47,10.66 48.98,16.01 76.49,16.01 34.18,0 63.58,-6.3 88.25,-18.85 24.67,-12.55 48.88,-30.24 72.55,-53.02l37.01 36.27c-12.81,13.23 -26.2,25.2 -40.21,35.91z"/>
    <polygon class="fil0" points="1041.49,1408.91 737.69,1408.91 737.69,1578.95 1009.46,1578.94 1009.46,1630.18 737.69,1630.18 737.69,1804.47 1045.06,1804.47 1045.06,1855.71 681.52,1855.71 681.52,1357.67 1041.49,1357.67 "/>
    <polygon class="fil0" points="408.27,1855.71 352.1,1855.71 352.1,1409.64 184.9,1409.64 184.9,1357.72 575.47,1357.72 575.47,1409.64 408.27,1409.64 "/>
   </g>
   <g>
    <polygon class="fil0" points="4953.69,1094.3 4953.69,0 5115.06,0 5115.06,473.38 5888.18,473.38 5888.18,0 6049.55,0 6049.55,1094.3 5888.18,1094.3 5888.18,634.76 5115.06,634.76 5115.06,1094.3 "/>
    <polygon class="fil0" points="4171.39,1094.3 4171.39,161.38 3704.17,161.38 3704.17,0 4800.04,0 4800.04,161.37 4332.83,161.38 4332.83,1094.3 "/>
    <path class="fil0" d="M3565.82 359.67c0,152.14 -122.95,275.09 -275.09,275.09l-118.35 0 393.44 459.54 -212.13 0 -393.45 -459.54 -328.92 0 0 459.54 -161.37 0 0 -1094.3 820.72 0c152.14,0 275.09,122.95 275.09,275.09l-0.01 84.58 0.06 0zm-161.44 -84.58c0,-63.02 -50.69,-113.71 -113.71,-113.71l-659.35 0 0 312 659.35 0c61.51,0 113.71,-52.26 113.71,-113.71l0 -84.58z"/>
    <path class="fil0" d="M1607.67 633.24l176.78 -411.93 175.21 411.93 59.93 138.3 136.79 322.75 175.21 0 -467.22 -1094.3 -161.38 0 -467.27 1094.3 175.21 0 196.72 -461.05zm0 0z"/>
    <path class="fil0" d="M1097.38 161.38l-1097.38 0 0 -161.38 1097.38 0 0 161.38zm-1.51 932.92l-1095.87 0 0 -620.92 934.49 0 0 161.37 -773.11 0.01 0 298.17 934.49 0 0 161.37z"/>
   </g>
  </g>
 </g>
</svg>
